<?xml version="1.0" encoding="iso-8859-1"?>
<!-- Generator: Adobe Illustrator 18.0.0, SVG Export Plug-In . SVG Version: 6.00 Build 0)  -->
<!DOCTYPE svg PUBLIC "-//W3C//DTD SVG 1.1//EN" "http://www.w3.org/Graphics/SVG/1.1/DTD/svg11.dtd">
<svg version="1.1" id="Capa_1" xmlns="http://www.w3.org/2000/svg" xmlns:xlink="http://www.w3.org/1999/xlink" x="0px" y="0px"
	 viewBox="0 0 297 297" style="enable-background:new 0 0 297 297;" xml:space="preserve">
<g>
	<path d="M148.497,65.78C103.008,65.78,66,102.889,66,148.5s37.008,82.72,82.497,82.72c45.492,0,82.503-37.108,82.503-82.72
		S193.989,65.78,148.497,65.78z M148.497,210.595c-34.116,0-61.872-27.856-61.872-62.095s27.756-62.095,61.872-62.095
		c34.12,0,61.878,27.856,61.878,62.095S182.617,210.595,148.497,210.595z"/>
	<path d="M293.452,140.717l-27.319-23.745l11.802-34.223c0.976-2.826,0.676-5.935-0.819-8.523c-1.495-2.587-4.04-4.398-6.974-4.965
		L234.6,62.4l-6.861-35.541c-0.566-2.936-2.378-5.479-4.965-6.975c-2.589-1.494-5.697-1.793-8.523-0.82l-34.223,11.803
		L156.284,3.548C154.325,1.294,151.486,0,148.5,0s-5.825,1.294-7.784,3.548l-23.743,27.319L82.75,19.065
		c-2.825-0.975-5.934-0.676-8.523,0.82c-2.587,1.496-4.398,4.039-4.965,6.975L62.4,62.399l-35.542,6.861
		c-2.935,0.566-5.479,2.378-6.974,4.965c-1.495,2.589-1.795,5.697-0.82,8.522l11.803,34.226L3.548,140.717
		C1.294,142.675,0,145.514,0,148.5s1.294,5.825,3.548,7.783l27.319,23.743l-11.803,34.226c-0.975,2.825-0.675,5.934,0.82,8.522
		c1.495,2.587,4.04,4.398,6.974,4.965L62.4,234.6l6.861,35.541c0.566,2.936,2.378,5.479,4.966,6.975s5.697,1.797,8.522,0.82
		l34.223-11.803l23.743,27.319c1.959,2.254,4.798,3.548,7.784,3.548s5.825-1.294,7.784-3.548l23.743-27.319l34.223,11.803
		c2.826,0.975,5.934,0.676,8.523-0.82c2.587-1.496,4.398-4.039,4.965-6.975l6.861-35.54l35.542-6.861
		c2.935-0.566,5.478-2.378,6.974-4.965c1.495-2.589,1.795-5.697,0.82-8.522l-11.803-34.226l27.319-23.743
		c2.254-1.958,3.548-4.797,3.548-7.783S295.706,142.675,293.452,140.717z M247.35,169.025c-3.174,2.76-4.355,7.17-2.984,11.145
		l10.197,29.569l-30.722,5.931c-4.138,0.799-7.372,4.034-8.171,8.171l-5.931,30.721l-29.566-10.196
		c-3.977-1.375-8.387-0.19-11.146,2.983L148.5,270.967l-20.526-23.617c-1.995-2.295-4.854-3.548-7.786-3.548
		c-1.123,0-2.259,0.184-3.36,0.564l-29.566,10.196l-5.932-30.722c-0.799-4.138-4.033-7.373-8.171-8.171l-30.721-5.93l10.197-29.569
		c1.371-3.976,0.189-8.386-2.984-11.145L26.033,148.5l23.617-20.525c3.174-2.76,4.356-7.17,2.984-11.146L42.438,87.26l30.722-5.931
		c4.138-0.799,7.372-4.034,8.171-8.171l5.931-30.721l29.566,10.196c3.979,1.376,8.387,0.191,11.146-2.983L148.5,26.033
		l20.526,23.617c2.76,3.175,7.17,4.357,11.146,2.983l29.566-10.196l5.931,30.722c0.799,4.138,4.033,7.373,8.171,8.171l30.722,5.93
		l-10.196,29.566c-1.372,3.976-0.191,8.387,2.983,11.146l23.617,20.527L247.35,169.025z"/>
</g>
<g>
</g>
<g>
</g>
<g>
</g>
<g>
</g>
<g>
</g>
<g>
</g>
<g>
</g>
<g>
</g>
<g>
</g>
<g>
</g>
<g>
</g>
<g>
</g>
<g>
</g>
<g>
</g>
<g>
</g>
</svg>
